<mxfile host="app.diagrams.net" agent="Mozilla/5.0 (Windows NT 10.0; Win64; x64) AppleWebKit/537.36 (KHTML, like Gecko) Chrome/109.0.0.0 Safari/537.36" version="27.1.4">
  <diagram name="第 1 页" id="C8H-OHthSWqjimW2i6oQ">
    <mxGraphModel dx="1426" dy="769" grid="1" gridSize="10" guides="1" tooltips="1" connect="1" arrows="1" fold="1" page="1" pageScale="1" pageWidth="827" pageHeight="1169" math="0" shadow="0">
      <root>
        <mxCell id="0" />
        <mxCell id="1" parent="0" />
        <mxCell id="JXfTcJA5Z0AWwcj5OocR-9" style="edgeStyle=orthogonalEdgeStyle;rounded=0;orthogonalLoop=1;jettySize=auto;html=1;exitX=0.5;exitY=1;exitDx=0;exitDy=0;entryX=0.5;entryY=0;entryDx=0;entryDy=0;fontSize=20;" edge="1" parent="1" source="JXfTcJA5Z0AWwcj5OocR-1" target="JXfTcJA5Z0AWwcj5OocR-2">
          <mxGeometry relative="1" as="geometry" />
        </mxCell>
        <mxCell id="JXfTcJA5Z0AWwcj5OocR-10" style="edgeStyle=orthogonalEdgeStyle;rounded=0;orthogonalLoop=1;jettySize=auto;html=1;exitX=0.5;exitY=1;exitDx=0;exitDy=0;entryX=0.5;entryY=0;entryDx=0;entryDy=0;fontSize=20;" edge="1" parent="1" source="JXfTcJA5Z0AWwcj5OocR-1" target="JXfTcJA5Z0AWwcj5OocR-3">
          <mxGeometry relative="1" as="geometry" />
        </mxCell>
        <mxCell id="JXfTcJA5Z0AWwcj5OocR-11" style="edgeStyle=orthogonalEdgeStyle;rounded=0;orthogonalLoop=1;jettySize=auto;html=1;exitX=0.5;exitY=1;exitDx=0;exitDy=0;fontSize=20;" edge="1" parent="1" source="JXfTcJA5Z0AWwcj5OocR-1" target="JXfTcJA5Z0AWwcj5OocR-4">
          <mxGeometry relative="1" as="geometry" />
        </mxCell>
        <mxCell id="JXfTcJA5Z0AWwcj5OocR-12" style="edgeStyle=orthogonalEdgeStyle;rounded=0;orthogonalLoop=1;jettySize=auto;html=1;exitX=0.5;exitY=1;exitDx=0;exitDy=0;fontSize=20;" edge="1" parent="1" source="JXfTcJA5Z0AWwcj5OocR-1" target="JXfTcJA5Z0AWwcj5OocR-8">
          <mxGeometry relative="1" as="geometry" />
        </mxCell>
        <mxCell id="JXfTcJA5Z0AWwcj5OocR-13" style="edgeStyle=orthogonalEdgeStyle;rounded=0;orthogonalLoop=1;jettySize=auto;html=1;exitX=0.5;exitY=1;exitDx=0;exitDy=0;entryX=0.5;entryY=0;entryDx=0;entryDy=0;fontSize=20;" edge="1" parent="1" source="JXfTcJA5Z0AWwcj5OocR-1" target="JXfTcJA5Z0AWwcj5OocR-7">
          <mxGeometry relative="1" as="geometry" />
        </mxCell>
        <mxCell id="JXfTcJA5Z0AWwcj5OocR-14" style="edgeStyle=orthogonalEdgeStyle;rounded=0;orthogonalLoop=1;jettySize=auto;html=1;exitX=0.5;exitY=1;exitDx=0;exitDy=0;fontSize=20;" edge="1" parent="1" source="JXfTcJA5Z0AWwcj5OocR-1" target="JXfTcJA5Z0AWwcj5OocR-6">
          <mxGeometry relative="1" as="geometry" />
        </mxCell>
        <mxCell id="JXfTcJA5Z0AWwcj5OocR-15" style="edgeStyle=orthogonalEdgeStyle;rounded=0;orthogonalLoop=1;jettySize=auto;html=1;exitX=0.5;exitY=1;exitDx=0;exitDy=0;fontSize=17;" edge="1" parent="1" source="JXfTcJA5Z0AWwcj5OocR-1" target="JXfTcJA5Z0AWwcj5OocR-5">
          <mxGeometry relative="1" as="geometry" />
        </mxCell>
        <mxCell id="JXfTcJA5Z0AWwcj5OocR-1" value="&lt;div&gt;台鋼保經官網&lt;a href=&quot;https://www.titanbroker.com.tw/&quot;&gt;https://www.titanbroker.com.tw&lt;/a&gt;&lt;br&gt;&lt;/div&gt;" style="rounded=1;whiteSpace=wrap;html=1;fillColor=#99FFFF;fontSize=20;" vertex="1" parent="1">
          <mxGeometry x="372.5" y="30" width="295" height="60" as="geometry" />
        </mxCell>
        <mxCell id="JXfTcJA5Z0AWwcj5OocR-22" style="edgeStyle=orthogonalEdgeStyle;rounded=0;orthogonalLoop=1;jettySize=auto;html=1;exitX=0.5;exitY=1;exitDx=0;exitDy=0;entryX=0;entryY=0.5;entryDx=0;entryDy=0;" edge="1" parent="1" source="JXfTcJA5Z0AWwcj5OocR-2" target="JXfTcJA5Z0AWwcj5OocR-16">
          <mxGeometry relative="1" as="geometry" />
        </mxCell>
        <mxCell id="JXfTcJA5Z0AWwcj5OocR-23" style="edgeStyle=orthogonalEdgeStyle;rounded=0;orthogonalLoop=1;jettySize=auto;html=1;exitX=0.5;exitY=1;exitDx=0;exitDy=0;entryX=0;entryY=0.5;entryDx=0;entryDy=0;" edge="1" parent="1" source="JXfTcJA5Z0AWwcj5OocR-2" target="JXfTcJA5Z0AWwcj5OocR-17">
          <mxGeometry relative="1" as="geometry">
            <Array as="points">
              <mxPoint x="100" y="220" />
              <mxPoint x="20" y="220" />
              <mxPoint x="20" y="340" />
            </Array>
          </mxGeometry>
        </mxCell>
        <mxCell id="JXfTcJA5Z0AWwcj5OocR-24" style="edgeStyle=orthogonalEdgeStyle;rounded=0;orthogonalLoop=1;jettySize=auto;html=1;exitX=0.5;exitY=1;exitDx=0;exitDy=0;entryX=0;entryY=0.5;entryDx=0;entryDy=0;" edge="1" parent="1" source="JXfTcJA5Z0AWwcj5OocR-2" target="JXfTcJA5Z0AWwcj5OocR-18">
          <mxGeometry relative="1" as="geometry">
            <Array as="points">
              <mxPoint x="100" y="220" />
              <mxPoint x="20" y="220" />
              <mxPoint x="20" y="420" />
            </Array>
          </mxGeometry>
        </mxCell>
        <mxCell id="JXfTcJA5Z0AWwcj5OocR-25" style="edgeStyle=orthogonalEdgeStyle;rounded=0;orthogonalLoop=1;jettySize=auto;html=1;exitX=0.5;exitY=1;exitDx=0;exitDy=0;entryX=0;entryY=0.5;entryDx=0;entryDy=0;" edge="1" parent="1" source="JXfTcJA5Z0AWwcj5OocR-2" target="JXfTcJA5Z0AWwcj5OocR-19">
          <mxGeometry relative="1" as="geometry">
            <Array as="points">
              <mxPoint x="100" y="220" />
              <mxPoint x="20" y="220" />
              <mxPoint x="20" y="500" />
            </Array>
          </mxGeometry>
        </mxCell>
        <mxCell id="JXfTcJA5Z0AWwcj5OocR-2" value="關於台鋼" style="rounded=0;whiteSpace=wrap;html=1;fillColor=#fff2cc;strokeColor=#d6b656;fontSize=20;" vertex="1" parent="1">
          <mxGeometry x="40" y="140" width="120" height="60" as="geometry" />
        </mxCell>
        <mxCell id="JXfTcJA5Z0AWwcj5OocR-27" style="edgeStyle=orthogonalEdgeStyle;rounded=0;orthogonalLoop=1;jettySize=auto;html=1;exitX=0.5;exitY=1;exitDx=0;exitDy=0;entryX=0;entryY=0.5;entryDx=0;entryDy=0;" edge="1" parent="1" source="JXfTcJA5Z0AWwcj5OocR-3" target="JXfTcJA5Z0AWwcj5OocR-20">
          <mxGeometry relative="1" as="geometry" />
        </mxCell>
        <mxCell id="JXfTcJA5Z0AWwcj5OocR-28" style="edgeStyle=orthogonalEdgeStyle;rounded=0;orthogonalLoop=1;jettySize=auto;html=1;exitX=0.5;exitY=1;exitDx=0;exitDy=0;entryX=0;entryY=0.5;entryDx=0;entryDy=0;" edge="1" parent="1" source="JXfTcJA5Z0AWwcj5OocR-3" target="JXfTcJA5Z0AWwcj5OocR-21">
          <mxGeometry relative="1" as="geometry">
            <Array as="points">
              <mxPoint x="260" y="220" />
              <mxPoint x="180" y="220" />
              <mxPoint x="180" y="340" />
            </Array>
          </mxGeometry>
        </mxCell>
        <mxCell id="JXfTcJA5Z0AWwcj5OocR-3" value="訊息活動" style="rounded=0;whiteSpace=wrap;html=1;fillColor=#fff2cc;strokeColor=#d6b656;fontSize=20;" vertex="1" parent="1">
          <mxGeometry x="200" y="140" width="120" height="60" as="geometry" />
        </mxCell>
        <mxCell id="JXfTcJA5Z0AWwcj5OocR-4" value="合作夥伴" style="rounded=0;whiteSpace=wrap;html=1;fillColor=#fff2cc;strokeColor=#d6b656;fontSize=20;" vertex="1" parent="1">
          <mxGeometry x="360" y="140" width="120" height="60" as="geometry" />
        </mxCell>
        <mxCell id="JXfTcJA5Z0AWwcj5OocR-5" value="聯絡我們" style="rounded=0;whiteSpace=wrap;html=1;fillColor=#fff2cc;strokeColor=#d6b656;fontSize=20;" vertex="1" parent="1">
          <mxGeometry x="1000" y="140" width="120" height="60" as="geometry" />
        </mxCell>
        <mxCell id="JXfTcJA5Z0AWwcj5OocR-6" value="創業平台" style="rounded=0;whiteSpace=wrap;html=1;fillColor=#fff2cc;strokeColor=#d6b656;fontSize=20;" vertex="1" parent="1">
          <mxGeometry x="840" y="140" width="120" height="60" as="geometry" />
        </mxCell>
        <mxCell id="JXfTcJA5Z0AWwcj5OocR-7" value="服務據點" style="rounded=0;whiteSpace=wrap;html=1;fillColor=#fff2cc;strokeColor=#d6b656;fontSize=20;" vertex="1" parent="1">
          <mxGeometry x="680" y="140" width="120" height="60" as="geometry" />
        </mxCell>
        <mxCell id="JXfTcJA5Z0AWwcj5OocR-8" value="精英風采" style="rounded=0;whiteSpace=wrap;html=1;fillColor=#fff2cc;strokeColor=#d6b656;fontSize=20;" vertex="1" parent="1">
          <mxGeometry x="520" y="140" width="120" height="60" as="geometry" />
        </mxCell>
        <mxCell id="JXfTcJA5Z0AWwcj5OocR-16" value="台鋼集團" style="rounded=0;whiteSpace=wrap;html=1;" vertex="1" parent="1">
          <mxGeometry x="40" y="230" width="120" height="60" as="geometry" />
        </mxCell>
        <mxCell id="JXfTcJA5Z0AWwcj5OocR-17" value="台鋼保經" style="rounded=0;whiteSpace=wrap;html=1;" vertex="1" parent="1">
          <mxGeometry x="40" y="310" width="120" height="60" as="geometry" />
        </mxCell>
        <mxCell id="JXfTcJA5Z0AWwcj5OocR-18" value="經營團隊" style="rounded=0;whiteSpace=wrap;html=1;" vertex="1" parent="1">
          <mxGeometry x="40" y="390" width="120" height="60" as="geometry" />
        </mxCell>
        <mxCell id="JXfTcJA5Z0AWwcj5OocR-19" value="我們的優勢" style="rounded=0;whiteSpace=wrap;html=1;" vertex="1" parent="1">
          <mxGeometry x="40" y="470" width="120" height="60" as="geometry" />
        </mxCell>
        <mxCell id="JXfTcJA5Z0AWwcj5OocR-20" value="最新消息" style="rounded=0;whiteSpace=wrap;html=1;" vertex="1" parent="1">
          <mxGeometry x="200" y="230" width="120" height="60" as="geometry" />
        </mxCell>
        <mxCell id="JXfTcJA5Z0AWwcj5OocR-21" value="活動剪影" style="rounded=0;whiteSpace=wrap;html=1;" vertex="1" parent="1">
          <mxGeometry x="200" y="310" width="120" height="60" as="geometry" />
        </mxCell>
      </root>
    </mxGraphModel>
  </diagram>
</mxfile>
